<?xml version="1.0" encoding="utf-8"?>
<!-- Generator: Adobe Illustrator 17.1.0, SVG Export Plug-In . SVG Version: 6.00 Build 0)  -->
<!DOCTYPE svg PUBLIC "-//W3C//DTD SVG 1.1//EN" "http://www.w3.org/Graphics/SVG/1.1/DTD/svg11.dtd">
<svg version="1.1" id="Calque_1" xmlns="http://www.w3.org/2000/svg" xmlns:xlink="http://www.w3.org/1999/xlink" x="0px" y="0px"
	 viewBox="0 0 841.9 595.3" enable-background="new 0 0 841.9 595.3" xml:space="preserve">
<g>
	<g>
		<path fill="#2EB4D0" d="M485.8,354.8c1.6,3.1,2.4,6.9,2.4,11.4v14.2h16v6h-39.3v-20.9c0-11.1,3.9-16.7,11.8-16.7
			C480.7,348.8,483.8,350.8,485.8,354.8z M470,365.1v15.3h13.1v-15.4c0-3-0.5-5.4-1.6-7.2c-1.2-2-2.7-3-4.8-3
			C472.2,354.8,470,358.2,470,365.1z"/>
		<path fill="#2EB4D0" d="M504.2,345.6h-29.4v-5.9h29.4V345.6z"/>
		<path fill="#2EB4D0" d="M502.7,308.9c1.4,2.7,2.1,5.9,2.1,9.7c0,5.2-1.3,9.4-3.9,12.6c-2.6,3.1-6.1,4.7-10.4,4.7
			c-4.6,0-8.3-1.6-11.1-4.8c-2.8-3.2-4.2-7.6-4.2-13.2c0-3.4,0.7-6.4,2-8.9c1.5-2.9,4.1-4.9,7.9-6.1l2.3,5.4c-2.8,0.8-4.7,2-5.8,3.4
			c-1.1,1.5-1.6,3.5-1.6,6.2c0,3.8,0.9,6.7,2.8,8.8c1.9,2,4.4,3.1,7.5,3.1c2.9,0,5.2-0.9,6.8-2.8c1.7-2,2.6-4.8,2.6-8.4
			c0-2.5-0.5-4.7-1.5-6.5c-1-1.8-3.1-3.1-6.5-3.9l2.1-5.7C498.2,303.7,501.1,305.8,502.7,308.9z"/>
		<path fill="#2EB4D0" d="M481.6,289.5h22.6v5.8l-22.6,0.1v6.2h-5v-6.2h-7.9v-5.9h7.9v-6.3h5V289.5z"/>
		<path fill="#2EB4D0" d="M504.3,256.8h-2c1.7,2.6,2.5,5.9,2.5,9.7c0,4.2-0.9,7.6-2.7,10.1c-1.9,2.7-4.7,4.1-8.2,4.1h-18v-5.9h18
			c4,0,6-2.7,6-8.2c0-6.5-2.9-9.7-8.8-9.7H476v-5.9h28.4V256.8z"/>
		<path fill="#2EB4D0" d="M483.9,236.8c2.2,1.7,5.1,2.5,8.6,2.5h11.6v5.9h-28.4v-5.9h2.6c-2.1-2.9-3.2-7.3-3.2-13.2h4.9
			C480.2,231.4,481.4,235,483.9,236.8z"/>
		<path fill="#2EB4D0" d="M492.3,219.9c5.1-0.7,7.7-4.3,7.7-10.9c0-5.4-2.1-9-6.3-10.8V192c4.7,1.7,7.8,4.2,9.3,7.4
			c1.3,2.8,2,6,2,9.7c0,5.5-1.4,9.7-4.1,12.6c-2.6,2.8-6.1,4.2-10.6,4.2c-4.3,0-7.8-1.5-10.7-4.6c-2.8-3.1-4.2-7.3-4.2-12.5
			c0-5.1,1.3-9.2,3.8-12.4c2.5-3.1,5.9-4.7,10.1-4.7h3.1L492.3,219.9z M482.7,200.9c-1.7,1.9-2.5,4.5-2.5,7.9c0,3.4,0.8,6,2.5,8
			c1.3,1.5,2.8,2.5,4.7,2.9v-21.6C485.5,198.5,483.9,199.4,482.7,200.9z"/>
	</g>
	<g>
		<path fill="#2EB4D0" d="M370.5,386.5l-5.6-13.2h-21l-5.7,13.2h-3.4l18.4-42h2.7l17.8,42H370.5z M354.7,349.1l-9.4,21.2h18.5
			L354.7,349.1z"/>
		<path fill="#2EB4D0" d="M382.4,363.4c-1.7,2.9-2.5,6.5-2.5,11v12.1h-3v-30.3h3v5.1c0.6-0.9,1.3-1.8,2.2-2.5
			c2.5-2.2,5.9-3.3,10.1-3.3v2.9C387.7,358.5,384.4,360.1,382.4,363.4z"/>
		<path fill="#2EB4D0" d="M416,384.9c-2.3,1.5-5.1,2.3-8.3,2.3c-4.6,0-8.2-1.4-10.8-4.2c-2.7-2.8-4-6.5-4-11.1
			c0-4.9,1.4-8.8,4.1-11.8c2.7-3,6.5-4.5,11.4-4.5c2.9,0,5.5,0.7,7.6,2.1c2.4,1.6,4,4,4.9,7.3l-2.7,1.4c-1.3-5.3-4.6-7.9-9.9-7.9
			c-3.9,0-7,1.2-9.1,3.7c-2.2,2.5-3.2,5.7-3.2,9.7c0,3.8,1,6.8,3.1,9c2.1,2.2,5,3.3,8.7,3.3c2.6,0,4.9-0.6,6.8-1.9
			c2-1.4,3.4-3.6,3.9-6.8l2.8,1.3C420.3,380.5,418.6,383.2,416,384.9z"/>
		<path fill="#2EB4D0" d="M447.8,386.5v-20.1c0-2.7-0.8-4.8-2.4-6.3c-1.6-1.4-3.8-2.2-6.5-2.2c-3.2,0-5.8,1-7.7,3.1
			c-1.9,2.1-2.8,4.8-2.8,8.1v17.2h-3v-42h3V360c2.2-3.3,5.7-4.9,10.4-4.9c3.4,0,6.2,0.9,8.4,2.7c2.4,1.9,3.5,4.7,3.5,8.2v20.6H447.8
			z"/>
		<path fill="#2EB4D0" d="M456.9,386.5v-30.7h3v30.7H456.9z"/>
	</g>
</g>
<rect x="334.8" y="191.8" fill="#2EB4D0" stroke="#2EB4D0" stroke-width="1.1403" width="133.4" height="153.3"/>
<path fill="#2EB4D0" stroke="#FFFFFF" stroke-width="2.6573" d="M470.7,343.4c0,4-5.6,7.2-12.6,7.2c-6.9,0-12.6-3.2-12.6-7.2
	c0-4,5.6-7.2,12.6-7.2C465.1,336.2,470.7,339.4,470.7,343.4z"/>
<rect x="349.5" y="205.3" fill="#FFFFFF" stroke="#2EB4D0" stroke-width="1.1403" width="12.3" height="19.9"/>
<rect x="389" y="219.4" fill="#FFFFFF" stroke="#2EB4D0" stroke-width="1.2482" width="17.3" height="17"/>
<rect x="368.5" y="251.6" fill="#FFFFFF" stroke="#2EB4D0" stroke-width="1.1403" width="12.3" height="19.9"/>
<rect x="402.5" y="287.3" fill="#FFFFFF" stroke="#2EB4D0" stroke-width="1.6314" width="23.1" height="21.7"/>
<rect x="431.2" y="237.6" fill="#FFFFFF" stroke="#2EB4D0" stroke-width="0.8802" width="10.8" height="13.5"/>
</svg>
